<svg width="370" height="244" viewBox="0 0 370 244" fill="none" xmlns="http://www.w3.org/2000/svg">
<path d="M124.272 116.495L215.654 116.495V86.7733L124.272 86.7733V116.495Z" fill="#C7C7C7"/>
<path d="M215.654 86.7791V116.5H358.097V113.601H355.026V89.679H358.097V86.7791H215.654Z" fill="#A6A6A6"/>
<path d="M219.395 113.413L355.186 113.413V89.8609L219.395 89.8609V113.413Z" fill="white"/>
<path d="M219.39 113.413C253.239 113.316 321.348 113.197 355.186 113.157L354.93 113.413V89.8607C334.329 90.6738 274.574 89.7584 253.37 90.0256L219.418 89.946C219.515 89.4399 219.418 113.521 219.418 113.413H219.39ZM219.39 113.413C219.39 113.333 219.31 89.855 219.31 89.7811C219.31 89.7072 253.319 89.7072 253.342 89.6958L355.186 89.5764H355.47V89.8607L355.442 113.413V113.669H355.186C321.342 113.634 253.228 113.515 219.39 113.413Z" fill="#DBDBDB"/>
<path d="M306.45 108.204C316.833 108.341 327.216 108.435 337.599 108.489L355.186 108.534V107.88L337.599 107.926C327.216 107.964 316.833 108.056 306.45 108.204Z" fill="#DBDBDB"/>
<path d="M219.39 102.637V103.24L242.06 103.303L274.92 103.217C285.303 103.168 295.686 103.075 306.069 102.939C295.686 102.802 285.303 102.71 274.92 102.66L242.06 102.575L219.39 102.637Z" fill="#DBDBDB"/>
<path d="M219.39 93.8069V94.5347L251.801 94.4494C262.191 94.4001 272.574 94.3073 282.949 94.1708C272.566 94.0343 262.183 93.9415 251.801 93.8922L219.39 93.8069Z" fill="#DBDBDB"/>
<path d="M219.39 108.267V108.87H228.095C238.478 108.824 248.863 108.731 259.249 108.591C248.859 108.462 238.474 108.369 228.095 108.312L219.39 108.267Z" fill="#DBDBDB"/>
<path d="M305.409 98.1171C315.796 98.246 326.181 98.3389 336.563 98.3958L355.186 98.4469V97.7874L336.563 97.8385C326.173 97.884 315.788 97.9769 305.409 98.1171Z" fill="#DBDBDB"/>
<path d="M346.15 100.534C339.005 100.496 331.854 100.467 324.697 100.448H302.072H280.027C272.873 100.448 265.722 100.477 258.573 100.534C265.726 100.572 272.877 100.6 280.027 100.619H302.072H324.697C331.85 100.6 339.001 100.572 346.15 100.534Z" fill="#DBDBDB"/>
<path d="M337.201 64.6882H245.819V86.7788H337.201V64.6882Z" fill="#EBEBEB"/>
<path d="M245.813 86.7788V64.6882H103.37V66.8433H106.441V84.6238H103.37V86.7788H245.813Z" fill="#DBDBDB"/>
<path d="M242.077 66.9797H106.287V84.4873H242.077V66.9797Z" fill="white"/>
<path d="M242.077 66.9798C208.228 67.0822 140.119 67.2016 106.287 67.2414L106.548 66.9798V84.4874C104.751 83.7027 174.566 84.5386 174.162 84.2884C191.073 84.2884 225.155 84.368 242.06 84.4249C241.963 84.8001 242.06 66.9059 242.06 66.9798H242.077ZM242.077 66.9798L242.14 84.4874V84.55H242.077C225.138 84.6068 191.112 84.6807 174.179 84.6864L106.287 84.7717H106.002V84.4874V66.9798V66.7183H106.264C140.108 66.7581 208.222 66.8775 242.054 66.9798H242.077Z" fill="#DBDBDB"/>
<path d="M155.023 70.8522C144.64 70.7498 134.255 70.6797 123.868 70.6418L106.281 70.6077V71.091L123.868 71.0626C134.24 71.036 144.625 70.9659 155.023 70.8522Z" fill="#DBDBDB"/>
<path d="M242.077 75.003V74.5538L219.412 74.5083L186.552 74.5708C176.169 74.6088 165.785 74.677 155.398 74.7755C165.781 74.8779 176.166 74.948 186.552 74.9859L219.412 75.0485L242.077 75.003Z" fill="#DBDBDB"/>
<path d="M242.077 81.5535V80.9849L209.667 81.0474C199.28 81.0853 188.895 81.1554 178.512 81.2578C188.895 81.3526 199.28 81.4208 209.667 81.4625L242.077 81.5535Z" fill="#DBDBDB"/>
<path d="M242.077 70.8066V70.3574H233.372C222.989 70.3915 212.606 70.4617 202.223 70.5678C212.606 70.6664 222.989 70.7346 233.372 70.7725L242.077 70.8066Z" fill="#DBDBDB"/>
<path d="M156.063 78.3522C145.677 78.2574 135.29 78.1873 124.903 78.1418L106.281 78.1077V78.5967L124.903 78.5569C135.294 78.5227 145.68 78.4545 156.063 78.3522Z" fill="#DBDBDB"/>
<path d="M115.316 76.5552C122.47 76.5855 129.621 76.6064 136.77 76.6178H159.401H181.44C188.594 76.6178 195.745 76.5969 202.894 76.5552C195.745 76.5211 188.594 76.5003 181.44 76.4927H159.401H136.77C129.617 76.504 122.466 76.5249 115.316 76.5552Z" fill="#DBDBDB"/>
<path d="M160.408 20.2285H33.6069V116.5H160.408V20.2285Z" fill="#EBEBEB"/>
<path d="M208.598 20.2285H160.408V116.5H208.598V20.2285Z" fill="#DBDBDB"/>
<path d="M33.6069 67.9919H160.408L61.3837 70.4882L33.6069 67.9919Z" fill="#DBDBDB"/>
<path d="M160.408 104.781H33.6069L132.637 107.277L160.408 104.781Z" fill="#DBDBDB"/>
<path d="M33.6069 40.8748H113.929L42.5285 42.9104L33.6069 40.8748Z" fill="#DBDBDB"/>
<path d="M160.407 90.4976H80.0908L151.486 92.5332L160.407 90.4976Z" fill="#DBDBDB"/>
<path d="M171.052 26.2161H90.7354L162.136 28.2574L171.052 26.2161Z" fill="#DBDBDB"/>
<path d="M88.5918 32.3171H179.183L164.081 33.5397L88.5918 32.3171Z" fill="#DBDBDB"/>
<path d="M45.9346 78.3918H136.526L121.424 79.6144L45.9346 78.3918Z" fill="#DBDBDB"/>
<path d="M101.642 50.1091H160.408L170.91 53.373L101.642 50.1091Z" fill="#EBEBEB"/>
<path d="M115.806 82.6394H174.572L185.068 85.9032L115.806 82.6394Z" fill="#EBEBEB"/>
<path d="M102.881 96.9741H161.647L172.149 100.238L102.881 96.9741Z" fill="#EBEBEB"/>
<path d="M17.4185 50.1091H76.1846L86.6812 53.373L17.4185 50.1091Z" fill="#DBDBDB"/>
<path d="M92.8223 31.2993H34.0618L23.5596 34.5575L92.8223 31.2993Z" fill="#EBEBEB"/>
<path d="M96.0008 88.8657H37.2347L26.7324 92.1296L96.0008 88.8657Z" fill="#EBEBEB"/>
<path d="M92.8223 93.7161H34.0618L23.5596 96.9742L92.8223 93.7161Z" fill="#DBDBDB"/>
<path d="M160.408 82.6394H207.597L218.099 85.9032L160.408 82.6394Z" fill="#DBDBDB"/>
<path d="M176.88 67.992H213.476L208.598 65.3252L176.88 67.992Z" fill="#DBDBDB"/>
<path d="M6.06348 116.512C122.47 116.165 253.046 116.159 369.452 116.512C253.046 116.864 122.47 116.859 6.06348 116.512Z" fill="#263238"/>
<path d="M240.326 197.01L296.795 183.13L368.543 193.127L309.634 208.036L240.326 197.01Z" fill="#DBDBDB"/>
<path d="M240.326 197.01L296.778 183.068C296.778 183.068 368.577 192.996 368.577 192.99L369.299 193.087L368.577 193.274L309.634 208.115C309.634 208.115 240.349 197.005 240.326 197.01ZM240.326 197.01C240.326 197.01 309.742 207.967 309.617 207.962L368.509 192.99V193.269C368.509 193.269 296.704 183.187 296.812 183.193L240.326 197.01Z" fill="#DBDBDB"/>
<path d="M307.388 204.169C310.862 203.1 314.445 202.105 318.038 201.121C321.632 200.138 325.282 199.194 328.944 198.278C332.606 197.363 336.336 196.436 340.078 195.566L345.718 194.264C347.64 193.854 349.522 193.422 351.467 193.036C349.761 193.576 347.953 194.071 346.196 194.594L340.823 196.078C337.24 197.073 333.578 198.011 329.917 198.921C326.255 199.831 322.525 200.763 318.783 201.633C315.042 202.503 311.266 203.373 307.388 204.169Z" fill="#C7C7C7"/>
<path d="M316.719 198.523C320.7 197.158 324.998 195.987 329.354 194.872C333.709 193.758 338.201 192.706 342.989 191.887C339.009 193.257 334.716 194.423 330.355 195.537C325.993 196.652 321.479 197.681 316.719 198.523Z" fill="#C7C7C7"/>
<path d="M290.375 201.912C293.85 200.843 297.432 199.847 301.026 198.864C304.619 197.88 308.27 196.936 311.932 196.021C315.593 195.105 319.324 194.178 323.059 193.308L328.706 192.012C330.622 191.603 332.51 191.17 334.454 190.778C332.749 191.318 330.94 191.819 329.183 192.336L323.81 193.826C320.222 194.815 316.566 195.753 312.904 196.669C309.242 197.584 305.512 198.511 301.771 199.381C298.029 200.251 294.253 201.115 290.375 201.912Z" fill="#C7C7C7"/>
<path d="M288.203 199.177C294.111 197.323 300.315 195.674 306.592 194.059C312.87 192.444 319.272 190.943 325.925 189.618C320.017 191.472 313.813 193.121 307.542 194.736C301.27 196.351 294.879 197.852 288.203 199.177Z" fill="#C7C7C7"/>
<path d="M295.584 194.031C298.842 192.848 302.407 191.864 306.029 190.932C309.651 189.999 313.421 189.158 317.441 188.498C314.183 189.686 310.618 190.664 307.002 191.597C303.385 192.529 299.61 193.371 295.584 194.031Z" fill="#C7C7C7"/>
<path d="M6.97314 138.722L85.328 123.892L160.936 145.983L82.9739 161.347L6.97314 138.722Z" fill="#EBEBEB"/>
<path d="M6.97315 138.722L85.3337 123.818C85.3337 123.818 160.959 145.852 160.959 145.846L161.528 146.011L160.959 146.125L82.9739 161.432C82.9455 161.432 6.99589 138.739 6.97315 138.739V138.722ZM6.97315 138.722L82.9967 161.273C82.809 161.313 160.959 145.829 160.897 145.846V146.119L85.3109 123.943C85.4588 123.909 6.9504 138.727 6.97315 138.727V138.722Z" fill="#DBDBDB"/>
<path d="M81.8765 156.843C86.994 155.661 92.1513 154.569 97.3314 153.472C102.511 152.374 107.731 151.328 112.957 150.293C118.182 149.258 123.436 148.246 128.724 147.285L136.657 145.841C139.323 145.386 141.967 144.908 144.657 144.476C142.11 145.073 139.539 145.613 136.958 146.182L129.191 147.848C124.016 148.951 118.791 149.992 113.571 151.027C108.351 152.061 103.091 153.073 97.8033 154.034C92.5152 154.995 87.2328 155.968 81.8765 156.843Z" fill="#DBDBDB"/>
<path d="M101.96 148.979C107.544 147.541 113.332 146.324 119.138 145.164C124.943 144.004 130.857 142.946 136.93 142.088C131.346 143.526 125.557 144.743 119.752 145.903C113.946 147.063 108.033 148.121 101.96 148.979Z" fill="#DBDBDB"/>
<path d="M74.1489 150.549C78.6125 149.491 83.1387 148.519 87.6762 147.552C92.2138 146.586 96.774 145.67 101.368 144.755C105.963 143.839 110.563 142.964 115.208 142.128L122.174 140.877C124.522 140.484 126.842 140.069 129.208 139.7C126.984 140.234 124.721 140.723 122.475 141.235L115.68 142.696C111.132 143.669 106.583 144.578 101.988 145.494C97.3938 146.409 92.7994 147.279 88.1539 148.121C83.5083 148.962 78.8684 149.798 74.1489 150.549Z" fill="#DBDBDB"/>
<path d="M70.5044 147.359C74.6268 146.37 78.8118 145.46 83.0139 144.561C87.2159 143.663 91.4464 142.81 95.6883 141.968C99.9301 141.127 104.217 140.308 108.505 139.541L114.959 138.403C117.136 138.045 119.291 137.664 121.486 137.329C119.434 137.835 117.335 138.284 115.266 138.767L108.977 140.126C104.786 141.03 100.544 141.878 96.3024 142.719C92.0605 143.561 87.7732 144.374 83.4858 145.147C79.1985 145.92 74.8827 146.648 70.5044 147.359Z" fill="#DBDBDB"/>
<path d="M50.9839 147.296C56.1014 146.114 61.2587 145.022 66.4388 143.919C71.6188 142.816 76.8387 141.781 82.0643 140.74C87.2898 139.7 92.5438 138.699 97.8262 137.732L105.787 136.288C108.454 135.839 111.098 135.355 113.787 134.923C111.24 135.526 108.67 136.061 106.088 136.629L98.3266 138.278C93.1522 139.376 87.9267 140.416 82.7068 141.457C77.4869 142.497 72.2273 143.498 66.9392 144.465C61.6511 145.431 56.3402 146.415 50.9839 147.296Z" fill="#DBDBDB"/>
<path d="M50.3354 143.515C54.8502 142.446 59.4332 141.463 64.022 140.485C68.6107 139.506 73.2448 138.58 77.879 137.641C82.5132 136.703 87.1759 135.828 91.8726 134.98L98.9234 133.712C101.295 133.314 103.649 132.894 106.037 132.524C103.762 133.064 101.488 133.553 99.2134 134.076L92.3389 135.549C87.7558 136.533 83.1217 137.454 78.4875 138.392C73.8533 139.33 69.185 140.206 64.4882 141.053C59.7915 141.9 55.1061 142.753 50.3354 143.515Z" fill="#DBDBDB"/>
<path d="M35.5347 142.52C40.6522 141.337 45.8095 140.245 50.9952 139.148C56.181 138.051 61.3952 136.982 66.6435 135.97C71.8918 134.957 77.123 133.922 82.4111 132.962L90.3432 131.517C93.01 131.062 95.6598 130.585 98.3436 130.153C95.7962 130.75 93.2261 131.29 90.6503 131.858L82.8887 133.513C77.7144 134.611 72.4888 135.651 67.2633 136.686C62.0377 137.721 56.7837 138.733 51.4956 139.694C46.2075 140.655 40.8967 141.644 35.5347 142.52Z" fill="#DBDBDB"/>
<path d="M53.4858 135.077C59.4278 133.564 65.5575 132.279 71.7326 131.051C77.9078 129.823 84.1625 128.691 90.5935 127.765C84.6515 129.277 78.5275 130.557 72.3467 131.79C66.1659 133.024 59.9168 134.139 53.4858 135.077Z" fill="#DBDBDB"/>
<path d="M121.788 214.427L221.363 195.583L317.436 223.655L218.366 243.176L121.788 214.427Z" fill="#EBEBEB"/>
<path d="M121.799 214.427L221.363 195.509C221.363 195.509 317.459 223.525 317.459 223.519L318.027 223.684L317.459 223.798L218.366 243.25C218.338 243.255 121.799 214.427 121.799 214.427ZM121.799 214.427L218.401 243.108C218.224 243.108 317.464 223.508 317.419 223.519V223.792L221.34 195.651C221.488 195.606 121.765 214.455 121.788 214.415L121.799 214.427Z" fill="#DBDBDB"/>
<path d="M216.967 237.455C223.455 235.954 230.045 234.55 236.613 233.168C243.18 231.786 249.827 230.45 256.463 229.131C263.099 227.812 269.78 226.532 276.501 225.304L286.583 223.473C289.994 222.905 293.332 222.285 296.749 221.739C293.514 222.501 290.227 223.2 286.969 223.934L277.104 226.026C270.531 227.425 263.889 228.744 257.253 230.064C250.618 231.383 243.937 232.662 237.216 233.885C230.495 235.107 223.779 236.341 216.967 237.455Z" fill="#DBDBDB"/>
<path d="M242.493 227.459C249.589 225.634 256.924 224.087 264.316 222.615C271.708 221.142 279.214 219.772 286.935 218.703C279.839 220.534 272.498 222.08 265.106 223.553C257.714 225.026 250.209 226.368 242.493 227.459Z" fill="#DBDBDB"/>
<path d="M207.153 229.455C212.839 228.113 218.577 226.874 224.342 225.651C230.108 224.429 235.925 223.257 241.742 222.097C247.559 220.937 253.421 219.823 259.324 218.754L268.183 217.162C271.162 216.667 274.113 216.138 277.121 215.672C274.278 216.354 271.435 216.974 268.592 217.622L259.96 219.476C254.2 220.71 248.378 221.87 242.561 223.03C236.744 224.19 230.876 225.304 224.974 226.368C219.071 227.431 213.146 228.528 207.153 229.455Z" fill="#DBDBDB"/>
<path d="M202.542 225.401C207.779 224.144 213.101 222.99 218.463 221.853C223.825 220.716 229.176 219.624 234.566 218.549C239.957 217.475 245.37 216.445 250.851 215.467L259.062 214C261.826 213.551 264.561 213.062 267.352 212.636C264.743 213.278 262.081 213.853 259.443 214.461L251.454 216.167C246.132 217.304 240.741 218.39 235.351 219.465C229.961 220.539 224.547 221.569 219.066 222.547C213.584 223.525 208.08 224.548 202.542 225.401Z" fill="#DBDBDB"/>
<path d="M177.71 225.321C184.198 223.82 190.789 222.416 197.356 221.034C203.924 219.652 210.571 218.316 217.206 216.997C223.842 215.678 230.523 214.398 237.227 213.176L247.309 211.345C250.72 210.776 254.058 210.157 257.475 209.639C254.24 210.401 250.953 211.101 247.695 211.834L237.83 213.927C231.257 215.325 224.615 216.644 217.98 217.964C211.344 219.283 204.663 220.562 197.942 221.785C191.221 223.007 184.522 224.207 177.71 225.321Z" fill="#DBDBDB"/>
<path d="M176.892 220.517C182.629 219.163 188.451 217.907 194.285 216.673C200.119 215.439 205.999 214.251 211.912 213.074C217.826 211.897 223.728 210.771 229.699 209.696L238.632 208.058C241.651 207.558 244.636 207.024 247.678 206.546C244.835 207.234 241.907 207.859 239.018 208.519L230.284 210.395C224.456 211.641 218.565 212.818 212.657 213.989C206.749 215.16 200.842 216.263 194.871 217.367C188.901 218.47 182.953 219.55 176.892 220.517Z" fill="#DBDBDB"/>
<path d="M158.082 219.254C164.57 217.753 171.16 216.349 177.728 214.967C184.295 213.585 190.942 212.249 197.578 210.93C204.214 209.611 210.895 208.331 217.616 207.103L227.697 205.272C231.109 204.704 234.447 204.084 237.858 203.538C234.629 204.3 231.342 204.999 228.084 205.733L218.219 207.825C211.645 209.224 205.004 210.543 198.368 211.862C191.733 213.182 185.051 214.461 178.33 215.683C171.609 216.906 164.894 218.14 158.082 219.254Z" fill="#DBDBDB"/>
<path d="M180.895 209.793C188.446 207.876 196.247 206.245 204.077 204.675C211.907 203.106 219.879 201.673 228.05 200.496C220.498 202.418 212.697 204.05 204.862 205.613C197.026 207.177 189.065 208.627 180.895 209.793Z" fill="#DBDBDB"/>
<path d="M365.108 166.669L180.752 217.605V180.89L365.108 129.954C374.877 147.968 365.108 166.669 365.108 166.669Z" fill="#37474F"/>
<path d="M0.85498 192.137L180.753 217.606V208.297L17.3049 188.305L0.85498 189.294V192.137Z" fill="#455A64"/>
<path d="M180.759 181.061C187.48 197.238 180.759 217.605 180.759 217.605L9.53223 190.562V158.828L180.759 181.061Z" fill="#455A64"/>
<path d="M176.522 180.515C183.067 196.629 177.063 213.983 177.063 213.983L9.53223 190.432V158.817L176.522 180.515Z" fill="white"/>
<path d="M176.522 180.515C176.744 181.14 177.386 182.903 177.608 183.523C178.938 187.95 179.613 192.547 179.61 197.17C179.635 202.871 178.805 208.545 177.148 214C177.227 214.251 9.54892 190.625 9.49206 190.687L9.24756 190.653V190.431V158.817V158.527L9.53186 158.566L93.0611 169.501L176.488 180.503L176.522 180.515ZM176.522 180.515C135.445 174.994 49.4883 164.804 9.78205 158.828L9.81048 190.443L9.56598 190.159C9.56598 190.221 177.443 213.807 176.966 213.955C177.815 211.247 178.45 208.477 178.865 205.67C180.133 197.272 179.644 188.458 176.516 180.515H176.522Z" fill="#DBDBDB"/>
<path d="M90.5933 172.52C118.546 175.932 149.854 180.14 177.71 184.273C149.757 180.862 118.45 176.648 90.5933 172.52Z" fill="#DBDBDB"/>
<path d="M9.53223 170.394C33.4936 173.237 60.0762 176.842 83.9523 180.43C59.9739 177.587 33.4026 173.993 9.53223 170.394Z" fill="#DBDBDB"/>
<path d="M13.5234 173.515C54.2418 178.633 99.8616 184.785 140.472 190.636C99.7592 185.519 54.1394 179.366 13.5234 173.515Z" fill="#DBDBDB"/>
<path d="M35.5347 184.256C77.7712 189.482 125.097 195.759 167.231 201.718C125 196.499 77.6746 190.215 35.5347 184.256Z" fill="#DBDBDB"/>
<path d="M63.9253 190.943C100.76 195.549 142.07 201.11 178.819 206.443C141.967 201.849 100.68 196.277 63.9253 190.943Z" fill="#DBDBDB"/>
<path d="M30.8208 190.881C78.0156 196.897 130.897 204.027 177.972 210.731C130.777 204.721 77.8962 197.585 30.8208 190.881Z" fill="#DBDBDB"/>
<path d="M180.758 181.061L365.108 129.954L178.819 121.516L0.85498 154.518V157.702L180.758 181.061Z" fill="#455A64"/>
<path d="M185.483 175.443C208.353 168.511 231.842 162.251 255.309 156.844C232.445 163.781 208.956 170.03 185.483 175.443Z" fill="#37474F"/>
<path d="M141.257 172.19C147.625 172.52 154.204 173.259 160.527 174.027C166.85 174.795 173.378 175.733 179.576 177.012C173.207 176.688 166.628 175.943 160.311 175.176C153.994 174.408 147.46 173.441 141.257 172.19Z" fill="#37474F"/>
<path d="M5.80176 155.138C49.1016 159.789 92.7483 165.276 135.758 171.491C92.4242 166.851 48.7832 161.353 5.80176 155.138Z" fill="#37474F"/>
<path d="M306.029 150.663C324.02 145.011 342.229 139.861 360.656 135.214C342.673 140.866 324.464 146.015 306.029 150.663Z" fill="#455A64"/>
<path d="M210.44 122.658C208.051 123.125 198.192 123.654 197.993 121.521C197.686 118.314 221.266 95.5697 229.727 91.2938C237.773 87.2225 263.696 78.3408 270.098 78.1475L270.155 98.572C266.533 99.4932 237.676 96.6785 231.615 99.8969C228.982 101.296 225.497 107.096 218.4 116.307C215.904 119.554 211.85 122.38 210.44 122.658Z" fill="#F9E24E"/>
<g opacity="0.3">
<path d="M210.44 122.658C208.051 123.125 198.192 123.654 197.993 121.521C197.686 118.314 221.266 95.5697 229.727 91.2938C237.773 87.2225 263.696 78.3408 270.098 78.1475L270.155 98.572C266.533 99.4932 237.676 96.6785 231.615 99.8969C228.982 101.296 225.497 107.096 218.4 116.307C215.904 119.554 211.85 122.38 210.44 122.658Z" fill="black"/>
</g>
<path d="M205.544 122.658C203.15 123.125 193.984 123.654 193.779 121.521C193.478 118.314 217.058 95.5697 225.514 91.2938C233.559 87.2225 263.696 78.3408 270.098 78.1475L270.155 98.572C266.533 99.4932 233.468 96.6785 227.407 99.8969C224.774 101.296 220.584 107.096 213.499 116.307C211.008 119.554 206.954 122.38 205.544 122.658Z" fill="#F9E24E"/>
<g opacity="0.2">
<path d="M205.544 122.658C203.15 123.125 193.984 123.654 193.779 121.521C193.478 118.314 217.058 95.5697 225.514 91.2938C233.559 87.2225 263.696 78.3408 270.098 78.1475L270.155 98.572C266.533 99.4932 233.468 96.6785 227.407 99.8969C224.774 101.296 220.584 107.096 213.499 116.307C211.008 119.554 206.954 122.38 205.544 122.658Z" fill="black"/>
</g>
<path d="M298.518 149.759C300.576 150.623 308.673 151.061 310.061 149.315C312.153 146.671 286.622 110.695 271.622 104.167C257.595 98.1114 59.689 59.6732 55.6063 59.0364L55.4585 75.003C83.0305 79.3131 257.981 107.186 268.802 111.9C275.858 114.965 284.848 131.136 291.308 142.31C293.918 146.847 296.129 148.758 298.518 149.759Z" fill="#F9E24E"/>
<g opacity="0.2">
<path d="M298.518 149.759C300.576 150.623 308.673 151.061 310.061 149.315C312.153 146.671 286.622 110.695 271.622 104.167C257.595 98.1114 59.689 59.6732 55.6063 59.0364L55.4585 75.003C83.0305 79.3131 257.981 107.186 268.802 111.9C275.858 114.965 284.848 131.136 291.308 142.31C293.918 146.847 296.129 148.758 298.518 149.759Z" fill="black"/>
</g>
<path d="M295.101 149.759C297.159 150.623 305.256 151.061 306.644 149.315C308.736 146.671 283.393 109.825 268.399 103.297C254.365 97.2415 59.6893 59.6505 55.6067 59.0364L52.0415 75.003C79.6135 79.3131 254.564 107.186 265.385 111.9C272.441 114.965 281.431 131.136 287.891 142.31C290.501 146.847 292.713 148.758 295.101 149.759Z" fill="#F9E24E"/>
<g opacity="0.1">
<path d="M295.101 149.759C297.159 150.623 305.256 151.061 306.644 149.315C308.736 146.671 283.393 109.825 268.399 103.297C254.365 97.2415 59.6893 59.6505 55.6067 59.0364L52.0415 75.003C79.6135 79.3131 254.564 107.186 265.385 111.9C272.441 114.965 281.431 131.136 287.891 142.31C290.501 146.847 292.713 148.758 295.101 149.759Z" fill="black"/>
</g>
<g opacity="0.1">
<path d="M93.9367 66.4056L78.9595 79.2847C66.5012 77.2945 56.9428 75.7877 52.0527 75.0201L55.6123 59.0364C56.721 59.207 71.9997 62.1353 93.9367 66.4056Z" fill="black"/>
<path d="M132.238 87.9049L122.936 86.3754L114.293 70.386L127.991 73.0926L132.238 87.9049Z" fill="black"/>
<path d="M184.631 84.4761L174.111 94.8419L164.769 93.2725L172.241 81.9514C176.391 82.7892 180.522 83.6307 184.631 84.4761Z" fill="black"/>
<path d="M267.114 102.825L263.492 111.292C261.752 110.803 259.13 110.189 255.758 109.478L253.148 99.1577C259.71 100.704 264.555 101.961 267.114 102.825Z" fill="black"/>
</g>
<path d="M93.2204 158.123C72.6025 157.128 56.9145 133.775 58.245 106.072C58.8762 92.8518 63.2488 80.5584 70.5498 71.4549C78.0953 62.05 87.8356 57.1145 98.0707 57.6319C108.306 58.1493 117.529 63.9492 124.13 74.0421C130.527 83.7881 133.7 96.4511 133.057 109.683C131.795 135.896 115.726 156.764 96.524 158.089C95.4244 158.163 94.3214 158.174 93.2204 158.123ZM75.7981 75.674C69.3785 83.663 65.5062 94.5803 64.9376 106.402C63.8004 130.397 76.6112 150.589 93.5331 151.402C110.455 152.215 125.165 133.354 126.331 109.324C126.899 97.503 124.107 86.2729 118.495 77.6926C113.088 69.4534 105.713 64.7054 97.7295 64.3245C96.8792 64.2732 96.0267 64.2732 95.1764 64.3245C88.1029 64.8647 81.3023 68.8051 75.7981 75.6626V75.674ZM58.2735 109.592C57.2329 89.3264 59.5017 86.1535 58.5805 80.1774C58.1427 77.3343 54.1396 74.605 54.1396 74.605L57.6366 60.0542C57.6366 60.0542 68.5369 61.1175 71.0502 61.1573C75.5195 61.2198 85.1688 57.956 93.5729 57.7456C93.5729 57.7456 75.3034 65.9564 69.4296 76.4245C63.5559 86.8927 58.2735 109.58 58.2735 109.58V109.592Z" fill="#F9E24E"/>
<path opacity="0.1" d="M93.2204 158.123C72.6025 157.128 56.9145 133.775 58.245 106.072C58.8762 92.8518 63.2488 80.5584 70.5498 71.4549C78.0953 62.05 87.8356 57.1145 98.0707 57.6319C108.306 58.1493 117.529 63.9492 124.13 74.0421C130.527 83.7881 133.7 96.4511 133.057 109.683C131.795 135.896 115.726 156.764 96.524 158.089C95.4244 158.163 94.3214 158.174 93.2204 158.123ZM75.7981 75.674C69.3785 83.663 65.5062 94.5803 64.9376 106.402C63.8004 130.397 76.6112 150.589 93.5331 151.402C110.455 152.215 125.165 133.354 126.331 109.324C126.899 97.503 124.107 86.2729 118.495 77.6926C113.088 69.4534 105.713 64.7054 97.7295 64.3245C96.8792 64.2732 96.0267 64.2732 95.1764 64.3245C88.1029 64.8647 81.3023 68.8051 75.7981 75.6626V75.674ZM58.2735 109.592C57.2329 89.3264 59.5017 86.1535 58.5805 80.1774C58.1427 77.3343 54.1396 74.605 54.1396 74.605L57.6366 60.0542C57.6366 60.0542 68.5369 61.1175 71.0502 61.1573C75.5195 61.2198 85.1688 57.956 93.5729 57.7456C93.5729 57.7456 75.3034 65.9564 69.4296 76.4245C63.5559 86.8927 58.2735 109.58 58.2735 109.58V109.592Z" fill="black"/>
<path d="M90.417 158.123C69.7934 157.128 54.1054 133.775 55.4359 106.072C56.0671 92.8518 60.4397 80.5584 67.7407 71.4549C75.2862 62.05 85.0265 57.1145 95.2616 57.6319C105.497 58.1493 114.72 63.9492 121.321 74.0421C127.718 83.7881 130.891 96.4511 130.248 109.683C128.986 135.896 112.917 156.764 93.7149 158.089C92.6172 158.163 91.5161 158.174 90.417 158.123ZM72.989 75.674C66.5694 83.6744 62.7199 94.5917 62.1513 106.413C61.014 130.409 73.8192 150.6 90.7411 151.413C107.663 152.226 122.373 133.365 123.539 109.336C124.107 97.5144 121.315 86.2843 115.703 77.7039C110.301 69.4647 102.921 64.7168 94.9375 64.3358C94.0872 64.2846 93.2346 64.2846 92.3844 64.3358C85.2995 64.8647 78.4932 68.8051 72.989 75.6626V75.674ZM55.4644 109.592C54.4238 89.3264 56.6926 86.1535 55.7714 80.1774C55.3336 77.3343 51.3306 74.605 51.3306 74.605L54.9867 58.3882C54.9867 58.3882 66.069 60.3499 68.5766 60.384C73.0459 60.4522 82.3598 57.956 90.7525 57.7684C90.7525 57.7684 72.483 65.9791 66.6092 76.4473C60.7354 86.9154 55.4644 109.58 55.4644 109.58V109.592Z" fill="#F9E24E"/>
<path d="M65.9156 65.8086C65.7848 66.815 63.9141 67.395 61.7363 67.105C59.5585 66.815 57.9095 65.7631 58.046 64.7623C58.1824 63.7615 60.0475 63.1759 62.2253 63.4659C64.4031 63.7559 66.0748 64.8021 65.9156 65.8086Z" fill="#A6A6A6"/>
<path d="M59.001 64.7965C59.1772 64.3131 61.0707 63.7673 63.1405 64.3245L59.001 64.7965Z" fill="white"/>
<path d="M54.1339 74.7358C58.0687 76.9421 59.7518 80.1945 59.3083 84.6979C58.8705 92.5107 57.9891 100.249 57.9778 108.062C57.9241 111.961 58.175 115.859 58.7283 119.719C56.2094 110.2 56.9599 100.164 57.847 90.4693L58.4156 84.6468C59.0297 80.2912 57.6536 77.3117 54.1226 74.7358H54.1339Z" fill="white"/>
<path d="M74.6836 61.3222C80.1423 59.7642 85.8113 58.4791 91.5202 58.735C85.8341 59.2411 80.3129 60.5148 74.6836 61.3222Z" fill="white"/>
<path opacity="0.1" d="M74.6779 76.0776C68.4743 84.0382 64.7556 94.8873 64.1983 106.646C63.0896 130.528 75.4853 150.589 91.8386 151.402C108.192 152.215 122.413 133.451 123.539 109.58C124.107 97.827 121.395 86.6538 115.971 78.1246C110.745 69.9252 103.615 65.2057 95.8928 64.8248C95.071 64.7736 94.2468 64.7736 93.425 64.8248C86.5733 65.3365 80.0001 69.2486 74.6779 76.0776Z" fill="#EBEBEB"/>
<g opacity="0.2">
<path d="M106.06 68.0319L64.1529 111.15C64.1131 109.66 64.1529 108.165 64.2041 106.641C64.4024 102.192 65.085 97.7781 66.2397 93.4773L94.1018 64.825C94.6704 64.825 95.3015 64.825 95.9043 64.825C99.504 65.0299 102.995 66.1324 106.06 68.0319Z" fill="white"/>
<path d="M120.662 88.0812L71.8575 138.295C70.9599 136.903 70.1472 135.458 69.4238 133.968L118.728 83.2366C119.464 84.8135 120.109 86.431 120.662 88.0812Z" fill="white"/>
<path d="M122.561 118.081C121.965 121.321 121.094 124.503 119.957 127.594L97.2405 150.964C95.4669 151.347 93.6507 151.494 91.8387 151.402C91.3269 151.374 90.8151 151.334 90.3091 151.266L122.561 118.081Z" fill="white"/>
<path d="M122.652 95.8087L76.111 143.692C75.8892 143.475 75.6788 143.248 75.4741 143.015L122.436 94.6829C122.521 95.0581 122.584 95.4391 122.652 95.8087Z" fill="white"/>
</g>
<path d="M157.462 110.922L162.011 105.981C154.699 99.2144 137.487 89.7641 124.591 102.302L129.276 107.124C140.83 95.871 156.786 110.308 157.462 110.922Z" fill="#F9E24E"/>
<path d="M200.984 164.275C187.857 161.865 176.223 154.343 168.637 143.362C161.052 132.381 158.135 118.838 160.527 105.708C162.318 95.9171 166.973 86.8773 173.902 79.7318C180.831 72.5862 189.724 67.6556 199.455 65.5636C209.186 63.4716 219.319 64.3121 228.572 67.9788C237.826 71.6454 245.784 77.9736 251.441 86.1631C257.099 94.3526 260.2 104.036 260.354 113.988C260.509 123.94 257.708 133.715 252.307 142.076C246.907 150.436 239.148 157.008 230.012 160.959C220.877 164.911 210.775 166.065 200.984 164.275ZM167.145 106.936C165.526 115.86 166.733 125.066 170.6 133.27C174.466 141.474 180.799 148.266 188.712 152.696C196.626 157.127 205.726 158.975 214.741 157.983C223.756 156.991 232.236 153.208 238.996 147.162C245.757 141.117 250.461 133.111 252.451 124.262C254.441 115.414 253.617 106.165 250.096 97.8073C246.574 89.4496 240.53 82.4004 232.808 77.6442C225.086 72.8881 216.071 70.6626 207.022 71.2785C197.361 71.9538 188.198 75.8242 180.979 82.28C173.759 88.7358 168.892 97.41 167.145 106.936Z" fill="#F9E24E"/>
<path d="M254.854 93.2668C251.391 81.7694 231.223 69.1292 231.223 69.1292C239.388 71.1364 248.395 75.219 252.773 76.1288C255.229 76.6348 270.127 78.1587 270.127 78.1587L270.184 98.5833C270.184 98.5833 266.09 98.8107 265.066 101.489C262.872 107.124 263.98 108.489 258.567 128.037C258.516 128.037 258.266 104.758 254.854 93.2668Z" fill="#F9E24E"/>
<g opacity="0.1">
<path d="M200.984 164.275C187.857 161.865 176.223 154.343 168.637 143.362C161.052 132.381 158.135 118.838 160.527 105.708C162.318 95.9171 166.973 86.8773 173.902 79.7318C180.831 72.5862 189.724 67.6556 199.455 65.5636C209.186 63.4716 219.319 64.3121 228.572 67.9788C237.826 71.6454 245.784 77.9736 251.441 86.1631C257.099 94.3526 260.2 104.036 260.354 113.988C260.509 123.94 257.708 133.715 252.307 142.076C246.907 150.436 239.148 157.008 230.012 160.959C220.877 164.911 210.775 166.065 200.984 164.275ZM167.145 106.936C165.526 115.86 166.733 125.066 170.6 133.27C174.466 141.474 180.799 148.266 188.712 152.696C196.626 157.127 205.726 158.975 214.741 157.983C223.756 156.991 232.236 153.208 238.996 147.162C245.757 141.117 250.461 133.111 252.451 124.262C254.441 115.414 253.617 106.165 250.096 97.8073C246.574 89.4496 240.53 82.4004 232.808 77.6442C225.086 72.8881 216.071 70.6626 207.022 71.2785C197.361 71.9538 188.198 75.8242 180.979 82.28C173.759 88.7358 168.892 97.41 167.145 106.936Z" fill="black"/>
<path d="M254.854 93.2668C251.391 81.7694 231.222 69.1292 231.222 69.1292C239.387 71.1364 248.394 75.219 252.773 76.1288C255.229 76.6348 270.127 78.1587 270.127 78.1587L270.184 98.5833C270.184 98.5833 266.089 98.8107 265.066 101.489C262.871 107.124 263.98 108.489 258.567 128.037C258.516 128.037 258.265 104.758 254.854 93.2668Z" fill="black"/>
</g>
<path d="M196.509 163.542C183.392 161.131 171.767 153.617 164.183 142.647C156.599 131.678 153.675 118.148 156.052 105.026C157.832 95.2239 162.48 86.1704 169.407 79.011C176.334 71.8515 185.23 66.908 194.968 64.8058C204.706 62.7037 214.848 63.5375 224.112 67.2018C233.376 70.866 241.344 77.1959 247.009 85.3905C252.674 93.5851 255.781 103.276 255.937 113.237C256.092 123.198 253.289 132.981 247.883 141.349C242.476 149.716 234.709 156.292 225.564 160.243C216.419 164.195 206.307 165.345 196.509 163.547V163.542ZM162.671 106.231C161.044 115.162 162.247 124.378 166.114 132.591C169.98 140.804 176.315 147.604 184.234 152.041C192.154 156.478 201.262 158.33 210.285 157.339C219.308 156.347 227.796 152.562 234.563 146.511C241.33 140.46 246.038 132.446 248.028 123.59C250.018 114.733 249.192 105.476 245.665 97.1113C242.138 88.747 236.085 81.6936 228.354 76.9367C220.622 72.1798 211.598 69.9571 202.542 70.5791C192.882 71.2554 183.722 75.1255 176.503 81.5801C169.285 88.0347 164.419 96.7069 162.671 106.231Z" fill="#F9E24E"/>
<path d="M250.351 92.5617C246.888 81.0643 226.719 68.4241 226.719 68.4241C234.885 70.4313 243.891 74.5139 248.27 75.4237C250.726 75.9298 265.624 77.4536 265.624 77.4536L265.681 96.1553C265.681 96.1553 261.587 97.3949 260.563 100.067C258.363 105.702 259.471 107.783 254.058 127.361C254.041 127.315 253.814 104.053 250.351 92.5617Z" fill="#F9E24E"/>
<path d="M259.244 85.8522C259.108 86.8586 257.237 87.4386 255.065 87.1486C252.893 86.8586 251.232 85.8124 251.369 84.8059C251.505 83.7995 253.376 83.2195 255.548 83.5095C257.72 83.7995 259.403 84.8514 259.244 85.8522Z" fill="#A6A6A6"/>
<path d="M252.324 84.8456C252.5 84.3623 254.393 83.8107 256.463 84.3736L252.324 84.8456Z" fill="white"/>
<path d="M182.543 72.0861C186.855 68.8024 192.135 67.0442 197.555 67.088C192.437 68.5891 187.513 70.2153 182.543 72.0861Z" fill="white"/>
<path d="M161.249 97.1788C163.796 87.0063 172.303 77.1921 181.668 72.6147C172.9 78.8695 165.548 87.2622 161.249 97.1788Z" fill="white"/>
<path opacity="0.1" d="M164.746 106.231C160.538 129.868 175.879 152.613 198.954 156.929C222.028 161.244 244.215 145.517 248.423 121.885C252.631 98.2535 237.284 75.4976 214.21 71.1875C210.74 70.5344 207.201 70.3299 203.679 70.5791C184.727 71.9153 168.306 86.2444 164.746 106.231Z" fill="#EBEBEB"/>
<g opacity="0.2">
<path d="M249.077 116.068L208.54 157.577C205.33 157.725 202.113 157.5 198.954 156.906C197.586 156.652 196.233 156.328 194.899 155.933L247.462 102.092C248.746 106.634 249.292 111.353 249.077 116.068Z" fill="white"/>
<path d="M212.037 70.8407L164.405 119.65C163.841 115.186 163.956 110.661 164.746 106.231C164.939 105.128 165.184 104.031 165.457 102.956L195.718 71.9268C198.321 71.2188 200.988 70.7674 203.679 70.5792C206.467 70.3785 209.268 70.4662 212.037 70.8407Z" fill="white"/>
<path d="M242.168 90.2361L183.322 150.509C181.978 149.615 180.689 148.641 179.461 147.592L239.331 86.2786C240.352 87.5416 241.3 88.863 242.168 90.2361Z" fill="white"/>
<path d="M223.756 74.1784L167.68 131.608C166.975 129.975 166.371 128.3 165.872 126.593L218.861 72.302C220.53 72.8252 222.165 73.4519 223.756 74.1784Z" fill="white"/>
<path d="M248.531 121.282C248.503 121.481 248.463 121.686 248.429 121.885C248.372 122.238 248.304 122.59 248.23 122.931L215.25 156.73C214.721 156.843 214.181 156.946 213.635 157.037L248.531 121.282Z" fill="white"/>
<path d="M235.982 82.5826L175.868 144.175C175.652 143.947 175.442 143.714 175.237 143.481L235.311 81.9287L235.982 82.5826Z" fill="white"/>
</g>
</svg>
